<svg id="Camada_1" data-name="Camada 1" xmlns="http://www.w3.org/2000/svg" viewBox="0 0 1920.5 1080.5"><defs><style>.cls-1,.cls-3{fill:#0f4c81;}.cls-2{fill:#0087ca;opacity:0.65;}.cls-3{stroke:#000;stroke-miterlimit:10;}.cls-4{fill:none;}</style></defs><title>back</title><path class="cls-1" d="M1919.5-.5v1080H-.5l.5-.64c49.59-63.39,132-150.67,259.5-218.36,0,0,17.05-9,34-17,119.39-56,280.6-28.79,440-9.59,111.12,13.38,221.37,22.87,316-2.41,267.3-71.43,226.38-371.46,725-735C1834.82,52.52,1886.4,19.75,1919.5-.5Z" transform="translate(0.5 0.5)"/><path class="cls-1" d="M733.52,830.21v3.7c-159.42-19.2-320.63-46.4-440,9.59-16.95,8-34,17-34,17C132,928.19,49.59,1015.47,0,1078.86V862C239.45,782,506.05,739.66,733.52,830.21Z" transform="translate(0.5 0.5)"/><path class="cls-2" d="M1920,1079H0v-.14c49.59-63.39,132-150.67,259.5-218.36,0,0,17.05-9,34-17,119.39-56,280.6-28.79,440-9.59v-3.7A634.73,634.73,0,0,1,831,879c40.52,24.86,55,40,90,59,169.54,91.78,461.92,78,998-282Z" transform="translate(0.5 0.5)"/><path class="cls-3" d="M-.5,923.5" transform="translate(0.5 0.5)"/><path class="cls-1" d="M655,732" transform="translate(0.5 0.5)"/><line class="cls-4" x1="734.02" y1="1080.5" x2="734.02" y2="1079.5"/><polygon class="cls-1" points="746.73 835.92 733.22 830.39 732.88 834.27 746.73 835.92"/></svg>